<svg width="300" height="52" viewBox="0 0 601 105" fill="none" xmlns="http://www.w3.org/2000/svg">
<path d="M413.5 25.1H538.8C539.6 25.1 547.6 24.7 551.7 30.4C555.1 35.2 552.2 39.7 551.9 40.7L526.9 104.2H570.3L599.6 29.7C601.3 25.1 600.9 20.4 599.5 16.8C598.1 13.2 595.7 10.3 592.4 7.79999C589 5.29999 584.9 3.40001 579.9 2.20001C575 0.900012 569.8 0.700012 564.5 0.700012L423 0.799988L413.5 25.1ZM425.7 104.2L450.7 40.7H407.5L382.5 104.2H425.7ZM224.6 25.1H387.4L397 0.600006L234.3 0.399994L224.6 25.1ZM218.5 40.7L209.7 63.2H372.5L381.4 40.7H218.5ZM203.2 79.6L193.5 104.1H356.3L365.9 79.6H203.2ZM31.9 25.1H198.7L208.4 0.600006H41.6L31.9 25.1ZM113.9 40.7H177.8L74.4 79.6H177.3L167.6 104.1H0.799988L10.5 79.6L113.9 40.7Z" fill="white"/>
</svg>
